<svg width="33" height="466" viewBox="0 0 33 466" fill="none" xmlns="http://www.w3.org/2000/svg">
<path d="M3.78499 444.43C4.08499 444.43 4.23499 444.58 4.23499 444.88L4.23499 460.81C4.23499 460.93 4.29499 460.99 4.41499 460.99H14.09C14.21 460.99 14.27 460.93 14.27 460.81V449.875C14.27 449.575 14.42 449.425 14.72 449.425H17.555C17.855 449.425 18.005 449.575 18.005 449.875V460.81C18.005 460.93 18.065 460.99 18.185 460.99H31.55C31.85 460.99 32 461.14 32 461.44V464.86C32 465.16 31.85 465.31 31.55 465.31H0.949994C0.649994 465.31 0.499995 465.16 0.499995 464.86L0.499995 444.88C0.499995 444.58 0.649994 444.43 0.949994 444.43H3.78499ZM32.405 420.738C32.405 422.928 31.955 424.863 31.055 426.543C30.155 428.223 28.895 429.528 27.275 430.458C25.625 431.388 23.735 431.853 21.605 431.853H10.895C8.76499 431.853 6.88999 431.388 5.26999 430.458C3.65 429.528 2.39 428.223 1.49 426.543C0.589996 424.863 0.139997 422.928 0.139997 420.738C0.139997 418.518 0.589996 416.568 1.49 414.888C2.39 413.208 3.65 411.903 5.26999 410.973C6.88999 410.043 8.76499 409.578 10.895 409.578H21.605C23.735 409.578 25.625 410.043 27.275 410.973C28.895 411.903 30.155 413.208 31.055 414.888C31.955 416.568 32.405 418.518 32.405 420.738ZM28.67 420.738C28.67 418.698 28.04 417.048 26.78 415.788C25.52 414.528 23.855 413.898 21.785 413.898H10.85C8.74999 413.898 7.06999 414.528 5.80999 415.788C4.52 417.048 3.875 418.698 3.875 420.738C3.875 422.778 4.52 424.428 5.80999 425.688C7.06999 426.918 8.74999 427.533 10.85 427.533H21.785C23.855 427.533 25.52 426.918 26.78 425.688C28.04 424.428 28.67 422.778 28.67 420.738ZM32 376.049C32 376.289 31.895 376.454 31.685 376.544L18.23 382.844C18.14 382.874 18.095 382.934 18.095 383.024V389.504C18.095 389.624 18.155 389.684 18.275 389.684H31.55C31.85 389.684 32 389.834 32 390.134V393.554C32 393.854 31.85 394.004 31.55 394.004H0.949994C0.649994 394.004 0.499995 393.854 0.499995 393.554L0.499995 381.449C0.499995 379.649 0.874995 378.074 1.625 376.724C2.375 375.344 3.42499 374.279 4.77499 373.529C6.125 372.779 7.68499 372.404 9.45499 372.404C11.555 372.404 13.34 372.959 14.81 374.069C16.25 375.149 17.225 376.664 17.735 378.614C17.795 378.734 17.87 378.764 17.96 378.704L31.46 372.179C31.52 372.149 31.595 372.134 31.685 372.134C31.895 372.134 32 372.254 32 372.494L32 376.049ZM4.23499 389.504C4.23499 389.624 4.29499 389.684 4.41499 389.684H14.495C14.615 389.684 14.675 389.624 14.675 389.504V381.989C14.675 380.399 14.21 379.124 13.28 378.164C12.32 377.204 11.06 376.724 9.49999 376.724C7.90999 376.724 6.63499 377.204 5.67499 378.164C4.71499 379.124 4.23499 380.399 4.23499 381.989V389.504ZM3.78499 336.482C4.08499 336.482 4.23499 336.632 4.23499 336.932L4.23499 352.907C4.23499 353.027 4.29499 353.087 4.41499 353.087H14.09C14.21 353.087 14.27 353.027 14.27 352.907L14.27 341.927C14.27 341.627 14.42 341.477 14.72 341.477H17.555C17.855 341.477 18.005 341.627 18.005 341.927L18.005 352.907C18.005 353.027 18.065 353.087 18.185 353.087H28.085C28.205 353.087 28.265 353.027 28.265 352.907L28.265 336.932C28.265 336.632 28.415 336.482 28.715 336.482H31.55C31.85 336.482 32 336.632 32 336.932L32 356.957C32 357.257 31.85 357.407 31.55 357.407H0.949994C0.649994 357.407 0.499995 357.257 0.499995 356.957L0.499995 336.932C0.499995 336.632 0.649994 336.482 0.949994 336.482H3.78499ZM32 313.064C32 313.334 31.88 313.514 31.64 313.604L0.994996 323.234L0.814996 323.279C0.604995 323.279 0.499995 323.144 0.499995 322.874L0.499995 319.229C0.499995 318.959 0.619995 318.779 0.859995 318.689L25.745 311.264C25.805 311.234 25.835 311.189 25.835 311.129C25.835 311.069 25.805 311.024 25.745 310.994L0.859995 303.569C0.619995 303.479 0.499995 303.314 0.499995 303.074L0.499995 299.519C0.499995 299.189 0.664995 299.069 0.994996 299.159L31.64 308.879C31.88 308.969 32 309.149 32 309.419V313.064ZM3.78499 264.561C4.08499 264.561 4.23499 264.711 4.23499 265.011L4.23499 280.986C4.23499 281.106 4.29499 281.166 4.41499 281.166H14.09C14.21 281.166 14.27 281.106 14.27 280.986V270.006C14.27 269.706 14.42 269.556 14.72 269.556H17.555C17.855 269.556 18.005 269.706 18.005 270.006V280.986C18.005 281.106 18.065 281.166 18.185 281.166H28.085C28.205 281.166 28.265 281.106 28.265 280.986V265.011C28.265 264.711 28.415 264.561 28.715 264.561H31.55C31.85 264.561 32 264.711 32 265.011V285.036C32 285.336 31.85 285.486 31.55 285.486H0.949994C0.649994 285.486 0.499995 285.336 0.499995 285.036L0.499995 265.011C0.499995 264.711 0.649994 264.561 0.949994 264.561H3.78499ZM32 231.636C32 231.876 31.895 232.041 31.685 232.131L18.23 238.431C18.14 238.461 18.095 238.521 18.095 238.611L18.095 245.091C18.095 245.211 18.155 245.271 18.275 245.271H31.55C31.85 245.271 32 245.421 32 245.721V249.141C32 249.441 31.85 249.591 31.55 249.591H0.949994C0.649994 249.591 0.499995 249.441 0.499995 249.141L0.499995 237.036C0.499995 235.236 0.874995 233.661 1.625 232.311C2.375 230.931 3.42499 229.866 4.77499 229.116C6.125 228.366 7.68499 227.991 9.45499 227.991C11.555 227.991 13.34 228.546 14.81 229.656C16.25 230.736 17.225 232.251 17.735 234.201C17.795 234.321 17.87 234.351 17.96 234.291L31.46 227.766C31.52 227.736 31.595 227.721 31.685 227.721C31.895 227.721 32 227.841 32 228.081V231.636ZM4.23499 245.091C4.23499 245.211 4.29499 245.271 4.41499 245.271H14.495C14.615 245.271 14.675 245.211 14.675 245.091L14.675 237.576C14.675 235.986 14.21 234.711 13.28 233.751C12.32 232.791 11.06 232.311 9.49999 232.311C7.90999 232.311 6.63499 232.791 5.67499 233.751C4.71499 234.711 4.23499 235.986 4.23499 237.576L4.23499 245.091ZM3.78499 174.105C4.08499 174.105 4.23499 174.255 4.23499 174.555L4.23499 190.485C4.23499 190.605 4.29499 190.665 4.41499 190.665H14.09C14.21 190.665 14.27 190.605 14.27 190.485L14.27 179.55C14.27 179.25 14.42 179.1 14.72 179.1H17.555C17.855 179.1 18.005 179.25 18.005 179.55L18.005 190.485C18.005 190.605 18.065 190.665 18.185 190.665H31.55C31.85 190.665 32 190.815 32 191.115V194.535C32 194.835 31.85 194.985 31.55 194.985H0.949994C0.649994 194.985 0.499995 194.835 0.499995 194.535L0.499995 174.555C0.499995 174.255 0.649994 174.105 0.949994 174.105H3.78499ZM32 144.096C32 144.366 31.88 144.546 31.64 144.636L26.375 146.256C26.285 146.286 26.24 146.346 26.24 146.436L26.24 159.081C26.24 159.171 26.285 159.231 26.375 159.261L31.64 160.881C31.88 160.971 32 161.151 32 161.421V165.066C32 165.396 31.835 165.516 31.505 165.426L0.859995 155.571C0.619995 155.481 0.499995 155.301 0.499995 155.031V150.531C0.499995 150.261 0.619995 150.081 0.859995 149.991L31.505 140.046L31.685 140.001C31.895 140.001 32 140.136 32 140.406V144.096ZM22.595 158.136C22.655 158.166 22.715 158.166 22.775 158.136C22.805 158.076 22.82 158.016 22.82 157.956L22.82 147.606C22.82 147.546 22.805 147.501 22.775 147.471C22.715 147.411 22.655 147.396 22.595 147.426L5.89999 152.646C5.83999 152.676 5.80999 152.721 5.80999 152.781C5.80999 152.841 5.83999 152.886 5.89999 152.916L22.595 158.136ZM32.36 117.914C32.36 120.224 32 122.234 31.28 123.944C30.56 125.624 29.54 126.929 28.22 127.859C26.9 128.759 25.355 129.209 23.585 129.209H22.28C21.98 129.209 21.83 129.059 21.83 128.759V125.474C21.83 125.174 21.98 125.024 22.28 125.024H23.36C24.89 125.024 26.15 124.364 27.14 123.044C28.13 121.724 28.625 119.909 28.625 117.599C28.625 115.529 28.19 113.969 27.32 112.919C26.45 111.869 25.31 111.344 23.9 111.344C22.97 111.344 22.175 111.614 21.515 112.154C20.855 112.694 20.255 113.489 19.715 114.539C19.145 115.559 18.47 117.059 17.69 119.039C16.85 121.229 16.085 122.969 15.395 124.259C14.705 125.519 13.805 126.569 12.695 127.409C11.555 128.249 10.13 128.669 8.41999 128.669C5.83999 128.669 3.81499 127.754 2.34499 125.924C0.874996 124.064 0.139997 121.559 0.139997 118.409C0.139997 116.189 0.514996 114.239 1.265 112.559C2.01499 110.879 3.06499 109.589 4.41499 108.689C5.76499 107.759 7.32499 107.294 9.09499 107.294H9.99499C10.295 107.294 10.445 107.444 10.445 107.744V111.119C10.445 111.419 10.295 111.569 9.99499 111.569H9.31999C7.75999 111.569 6.46999 112.199 5.44999 113.459C4.4 114.689 3.875 116.399 3.875 118.589C3.875 120.449 4.265 121.889 5.04499 122.909C5.79499 123.929 6.88999 124.439 8.32999 124.439C9.31999 124.439 10.13 124.184 10.76 123.674C11.39 123.164 11.96 122.414 12.47 121.424C12.95 120.404 13.58 118.859 14.36 116.789C15.2 114.659 15.98 112.934 16.7 111.614C17.39 110.294 18.32 109.199 19.49 108.329C20.63 107.459 22.055 107.024 23.765 107.024C26.405 107.024 28.505 107.999 30.065 109.949C31.595 111.869 32.36 114.524 32.36 117.914ZM0.499995 72.9013C0.499995 72.6013 0.649994 72.4513 0.949994 72.4513H3.82999C4.12999 72.4513 4.27999 72.6013 4.27999 72.9013L4.27999 81.5413C4.27999 81.6613 4.33999 81.7213 4.45999 81.7213H31.55C31.85 81.7213 32 81.8713 32 82.1713V85.5913C32 85.8913 31.85 86.0413 31.55 86.0413H4.45999C4.33999 86.0413 4.27999 86.1013 4.27999 86.2213L4.27999 94.4563C4.27999 94.7563 4.12999 94.9063 3.82999 94.9063H0.949994C0.649994 94.9063 0.499995 94.7563 0.499995 94.4563L0.499995 72.9013ZM3.78499 37.1615C4.08499 37.1615 4.23499 37.3115 4.23499 37.6115L4.23499 53.5865C4.23499 53.7065 4.29499 53.7665 4.41499 53.7665H14.09C14.21 53.7665 14.27 53.7065 14.27 53.5865L14.27 42.6065C14.27 42.3065 14.42 42.1565 14.72 42.1565H17.555C17.855 42.1565 18.005 42.3065 18.005 42.6065L18.005 53.5865C18.005 53.7065 18.065 53.7665 18.185 53.7665H28.085C28.205 53.7665 28.265 53.7065 28.265 53.5865L28.265 37.6115C28.265 37.3115 28.415 37.1615 28.715 37.1615H31.55C31.85 37.1615 32 37.3115 32 37.6115L32 57.6365C32 57.9365 31.85 58.0865 31.55 58.0865H0.949994C0.649994 58.0865 0.499995 57.9365 0.499995 57.6365L0.499995 37.6115C0.499995 37.3115 0.649994 37.1615 0.949994 37.1615H3.78499ZM32 4.23695C32 4.47695 31.895 4.64195 31.685 4.73195L18.23 11.0319C18.14 11.0619 18.095 11.1219 18.095 11.2119V17.6919C18.095 17.8119 18.155 17.8719 18.275 17.8719H31.55C31.85 17.8719 32 18.0219 32 18.3219V21.7419C32 22.0419 31.85 22.1919 31.55 22.1919H0.949994C0.649994 22.1919 0.499995 22.0419 0.499995 21.7419L0.499995 9.63694C0.499995 7.83694 0.874995 6.26194 1.625 4.91195C2.375 3.53195 3.42499 2.46695 4.77499 1.71695C6.125 0.966946 7.68499 0.591946 9.45499 0.591946C11.555 0.591946 13.34 1.14695 14.81 2.25695C16.25 3.33695 17.225 4.85195 17.735 6.80195C17.795 6.92195 17.87 6.95195 17.96 6.89195L31.46 0.366946C31.52 0.336947 31.595 0.321947 31.685 0.321947C31.895 0.321947 32 0.441947 32 0.681947V4.23695ZM4.23499 17.6919C4.23499 17.8119 4.29499 17.8719 4.41499 17.8719H14.495C14.615 17.8719 14.675 17.8119 14.675 17.6919V10.1769C14.675 8.58695 14.21 7.31195 13.28 6.35195C12.32 5.39195 11.06 4.91195 9.49999 4.91195C7.90999 4.91195 6.63499 5.39195 5.67499 6.35195C4.71499 7.31195 4.23499 8.58695 4.23499 10.1769V17.6919Z" fill="#414141"/>
</svg>
